<svg width="16" height="16" viewBox="0 0 16 16" fill="none" xmlns="http://www.w3.org/2000/svg">
<path d="M8 7.97501C6.9 7.97501 6 7.62501 5.3 6.92501C4.6 6.22501 4.25 5.32501 4.25 4.22501C4.25 3.12501 4.6 2.22501 5.3 1.52501C6 0.825006 6.9 0.475006 8 0.475006C9.1 0.475006 10 0.825006 10.7 1.52501C11.4 2.22501 11.75 3.12501 11.75 4.22501C11.75 5.32501 11.4 6.22501 10.7 6.92501C10 7.62501 9.1 7.97501 8 7.97501V7.97501ZM0 16V13.65C0 13.0167 0.158333 12.475 0.475 12.025C0.791667 11.575 1.2 11.2333 1.7 11C2.81667 10.5 3.8875 10.125 4.9125 9.87501C5.9375 9.62501 6.96667 9.50001 8 9.50001C9.03333 9.50001 10.0583 9.62917 11.075 9.88751C12.0917 10.1458 13.1583 10.5167 14.275 11C14.7917 11.2333 15.2083 11.575 15.525 12.025C15.8417 12.475 16 13.0167 16 13.65V16H0ZM1.5 14.5H14.5V13.65C14.5 13.3833 14.4208 13.1292 14.2625 12.8875C14.1042 12.6458 13.9083 12.4667 13.675 12.35C12.6083 11.8333 11.6333 11.4792 10.75 11.2875C9.86667 11.0958 8.95 11 8 11C7.05 11 6.125 11.0958 5.225 11.2875C4.325 11.4792 3.35 11.8333 2.3 12.35C2.06667 12.4667 1.875 12.6458 1.725 12.8875C1.575 13.1292 1.5 13.3833 1.5 13.65V14.5ZM8 6.47501C8.65 6.47501 9.1875 6.26251 9.6125 5.83751C10.0375 5.41251 10.25 4.87501 10.25 4.22501C10.25 3.57501 10.0375 3.03751 9.6125 2.61251C9.1875 2.18751 8.65 1.97501 8 1.97501C7.35 1.97501 6.8125 2.18751 6.3875 2.61251C5.9625 3.03751 5.75 3.57501 5.75 4.22501C5.75 4.87501 5.9625 5.41251 6.3875 5.83751C6.8125 6.26251 7.35 6.47501 8 6.47501Z" fill="#666666"/>
</svg>
